<?xml version="1.0" encoding="UTF-8" standalone="no"?>
<!DOCTYPE svg PUBLIC "-//W3C//DTD SVG 1.1//EN"
 "http://www.w3.org/Graphics/SVG/1.1/DTD/svg11.dtd">
<!-- Generated by graphviz version 5.0.0 (20220707.1540)
 -->
<!-- Title: dependencies Pages: 1 -->
<svg width="566pt" height="247pt"
 viewBox="0.00 0.00 566.00 246.80" xmlns="http://www.w3.org/2000/svg" xmlns:xlink="http://www.w3.org/1999/xlink">
<g id="graph0" class="graph" transform="scale(1 1) rotate(0) translate(4 242.8)">
<title>dependencies</title>
<polygon fill="white" stroke="transparent" points="-4,4 -4,-242.8 562,-242.8 562,4 -4,4"/>
<text text-anchor="middle" x="279" y="-8.2" font-family="sans-serif" font-size="14.00">dependencies</text>
<g id="clust1" class="cluster">
<title>cluster_TokenModule</title>
<polygon fill="none" stroke="black" stroke-dasharray="1,5" points="8,-32.8 8,-230.8 550,-230.8 550,-32.8 8,-32.8"/>
</g>
<g id="clust6" class="cluster">
<title>cluster_TokenModule_providers</title>
<polygon fill="none" stroke="black" points="16,-40.8 16,-92.8 542,-92.8 542,-40.8 16,-40.8"/>
</g>
<g id="clust4" class="cluster">
<title>cluster_TokenModule_exports</title>
<polygon fill="none" stroke="black" points="231,-170.8 231,-222.8 349,-222.8 349,-170.8 231,-170.8"/>
</g>
<!-- TokensService  -->
<g id="node1" class="node">
<title>TokensService </title>
<polygon fill="#fb8072" stroke="black" points="341.19,-214.8 238.81,-214.8 238.81,-178.8 341.19,-178.8 341.19,-214.8"/>
<text text-anchor="middle" x="290" y="-192.6" font-family="Times,serif" font-size="14.00">TokensService </text>
</g>
<!-- TokenModule -->
<g id="node2" class="node">
<title>TokenModule</title>
<polygon fill="#8dd3c7" stroke="black" points="337.82,-149.8 334.82,-153.8 313.82,-153.8 310.82,-149.8 242.18,-149.8 242.18,-113.8 337.82,-113.8 337.82,-149.8"/>
<text text-anchor="middle" x="290" y="-127.6" font-family="Times,serif" font-size="14.00">TokenModule</text>
</g>
<!-- TokenModule&#45;&gt;TokensService  -->
<g id="edge1" class="edge">
<title>TokenModule&#45;&gt;TokensService </title>
<path fill="none" stroke="black" stroke-dasharray="5,2" d="M290,-149.91C290,-149.91 290,-168.79 290,-168.79"/>
<polygon fill="black" stroke="black" points="286.5,-168.79 290,-178.79 293.5,-168.79 286.5,-168.79"/>
</g>
<!-- JwtStrategy -->
<g id="node3" class="node">
<title>JwtStrategy</title>
<ellipse fill="#fdb462" stroke="black" cx="477" cy="-66.8" rx="56.77" ry="18"/>
<text text-anchor="middle" x="477" y="-62.6" font-family="Times,serif" font-size="14.00">JwtStrategy</text>
</g>
<!-- JwtStrategy&#45;&gt;TokenModule -->
<g id="edge2" class="edge">
<title>JwtStrategy&#45;&gt;TokenModule</title>
<path fill="none" stroke="black" d="M477,-84.91C477,-104.14 477,-131.8 477,-131.8 477,-131.8 347.67,-131.8 347.67,-131.8"/>
<polygon fill="black" stroke="black" points="347.67,-128.3 337.67,-131.8 347.67,-135.3 347.67,-128.3"/>
</g>
<!-- RefreshTokensRepository -->
<g id="node4" class="node">
<title>RefreshTokensRepository</title>
<ellipse fill="#fdb462" stroke="black" cx="290" cy="-66.8" rx="111.76" ry="18"/>
<text text-anchor="middle" x="290" y="-62.6" font-family="Times,serif" font-size="14.00">RefreshTokensRepository</text>
</g>
<!-- RefreshTokensRepository&#45;&gt;TokenModule -->
<g id="edge3" class="edge">
<title>RefreshTokensRepository&#45;&gt;TokenModule</title>
<path fill="none" stroke="black" d="M290,-84.91C290,-84.91 290,-103.79 290,-103.79"/>
<polygon fill="black" stroke="black" points="286.5,-103.79 290,-113.79 293.5,-103.79 286.5,-103.79"/>
</g>
<!-- TokensService -->
<g id="node5" class="node">
<title>TokensService</title>
<ellipse fill="#fdb462" stroke="black" cx="92" cy="-66.8" rx="68.34" ry="18"/>
<text text-anchor="middle" x="92" y="-62.6" font-family="Times,serif" font-size="14.00">TokensService</text>
</g>
<!-- TokensService&#45;&gt;TokenModule -->
<g id="edge4" class="edge">
<title>TokensService&#45;&gt;TokenModule</title>
<path fill="none" stroke="black" d="M92,-84.91C92,-104.14 92,-131.8 92,-131.8 92,-131.8 232.32,-131.8 232.32,-131.8"/>
<polygon fill="black" stroke="black" points="232.32,-135.3 242.32,-131.8 232.32,-128.3 232.32,-135.3"/>
</g>
</g>
</svg>
