<?xml version="1.0" encoding="UTF-8" standalone="no"?>
<!DOCTYPE svg PUBLIC "-//W3C//DTD SVG 1.1//EN"
 "http://www.w3.org/Graphics/SVG/1.1/DTD/svg11.dtd">
<!-- Generated by graphviz version 5.0.0 (20220707.1540)
 -->
<!-- Title: dependencies Pages: 1 -->
<svg width="358pt" height="174pt"
 viewBox="0.00 0.00 358.00 173.80" xmlns="http://www.w3.org/2000/svg" xmlns:xlink="http://www.w3.org/1999/xlink">
<g id="graph0" class="graph" transform="scale(1 1) rotate(0) translate(4 169.8)">
<title>dependencies</title>
<polygon fill="white" stroke="transparent" points="-4,4 -4,-169.8 354,-169.8 354,4 -4,4"/>
<text text-anchor="middle" x="175" y="-8.2" font-family="sans-serif" font-size="14.00">dependencies</text>
<g id="clust1" class="cluster">
<title>cluster_EncryptionModule</title>
<polygon fill="none" stroke="black" stroke-dasharray="1,5" points="8,-32.8 8,-157.8 342,-157.8 342,-32.8 8,-32.8"/>
</g>
<g id="clust3" class="cluster">
<title>cluster_EncryptionModule_imports</title>
<polygon fill="none" stroke="black" points="206,-40.8 206,-92.8 334,-92.8 334,-40.8 206,-40.8"/>
</g>
<g id="clust6" class="cluster">
<title>cluster_EncryptionModule_providers</title>
<polygon fill="none" stroke="black" points="16,-40.8 16,-92.8 198,-92.8 198,-40.8 16,-40.8"/>
</g>
<!-- HeimdallModule -->
<g id="node1" class="node">
<title>HeimdallModule</title>
<polygon fill="#8dd3c7" stroke="black" points="325.65,-84.8 322.65,-88.8 301.65,-88.8 298.65,-84.8 214.35,-84.8 214.35,-48.8 325.65,-48.8 325.65,-84.8"/>
<text text-anchor="middle" x="270" y="-62.6" font-family="Times,serif" font-size="14.00">HeimdallModule</text>
</g>
<!-- EncryptionModule -->
<g id="node2" class="node">
<title>EncryptionModule</title>
<polygon fill="#8dd3c7" stroke="black" points="248.76,-149.8 245.76,-153.8 224.76,-153.8 221.76,-149.8 127.24,-149.8 127.24,-113.8 248.76,-113.8 248.76,-149.8"/>
<text text-anchor="middle" x="188" y="-127.6" font-family="Times,serif" font-size="14.00">EncryptionModule</text>
</g>
<!-- HeimdallModule&#45;&gt;EncryptionModule -->
<g id="edge1" class="edge">
<title>HeimdallModule&#45;&gt;EncryptionModule</title>
<path fill="none" stroke="black" d="M231.53,-84.91C231.53,-84.91 231.53,-103.79 231.53,-103.79"/>
<polygon fill="black" stroke="black" points="228.03,-103.79 231.53,-113.79 235.03,-103.79 228.03,-103.79"/>
</g>
<!-- EncryptionService -->
<g id="node3" class="node">
<title>EncryptionService</title>
<ellipse fill="#fdb462" stroke="black" cx="107" cy="-66.8" rx="82.81" ry="18"/>
<text text-anchor="middle" x="107" y="-62.6" font-family="Times,serif" font-size="14.00">EncryptionService</text>
</g>
<!-- EncryptionService&#45;&gt;EncryptionModule -->
<g id="edge2" class="edge">
<title>EncryptionService&#45;&gt;EncryptionModule</title>
<path fill="none" stroke="black" d="M158.51,-80.9C158.51,-80.9 158.51,-103.52 158.51,-103.52"/>
<polygon fill="black" stroke="black" points="155.01,-103.52 158.51,-113.52 162.01,-103.52 155.01,-103.52"/>
</g>
</g>
</svg>
