<?xml version="1.0" encoding="UTF-8" standalone="no"?>
<!DOCTYPE svg PUBLIC "-//W3C//DTD SVG 1.1//EN"
 "http://www.w3.org/Graphics/SVG/1.1/DTD/svg11.dtd">
<!-- Generated by graphviz version 5.0.0 (20220707.1540)
 -->
<!-- Title: dependencies Pages: 1 -->
<svg width="512pt" height="247pt"
 viewBox="0.00 0.00 512.00 246.80" xmlns="http://www.w3.org/2000/svg" xmlns:xlink="http://www.w3.org/1999/xlink">
<g id="graph0" class="graph" transform="scale(1 1) rotate(0) translate(4 242.8)">
<title>dependencies</title>
<polygon fill="white" stroke="transparent" points="-4,4 -4,-242.8 508,-242.8 508,4 -4,4"/>
<text text-anchor="middle" x="252" y="-8.2" font-family="sans-serif" font-size="14.00">dependencies</text>
<g id="clust1" class="cluster">
<title>cluster_AccountModule</title>
<polygon fill="none" stroke="black" stroke-dasharray="1,5" points="8,-32.8 8,-230.8 496,-230.8 496,-32.8 8,-32.8"/>
</g>
<g id="clust3" class="cluster">
<title>cluster_AccountModule_imports</title>
<polygon fill="none" stroke="black" points="376,-40.8 376,-92.8 488,-92.8 488,-40.8 376,-40.8"/>
</g>
<g id="clust4" class="cluster">
<title>cluster_AccountModule_exports</title>
<polygon fill="none" stroke="black" points="144,-170.8 144,-222.8 415,-222.8 415,-170.8 144,-170.8"/>
</g>
<g id="clust6" class="cluster">
<title>cluster_AccountModule_providers</title>
<polygon fill="none" stroke="black" points="16,-40.8 16,-92.8 368,-92.8 368,-40.8 16,-40.8"/>
</g>
<!-- TokenModule -->
<g id="node1" class="node">
<title>TokenModule</title>
<polygon fill="#8dd3c7" stroke="black" points="479.82,-84.8 476.82,-88.8 455.82,-88.8 452.82,-84.8 384.18,-84.8 384.18,-48.8 479.82,-48.8 479.82,-84.8"/>
<text text-anchor="middle" x="432" y="-62.6" font-family="Times,serif" font-size="14.00">TokenModule</text>
</g>
<!-- AccountModule -->
<g id="node2" class="node">
<title>AccountModule</title>
<polygon fill="#8dd3c7" stroke="black" points="327.48,-149.8 324.48,-153.8 303.48,-153.8 300.48,-149.8 220.52,-149.8 220.52,-113.8 327.48,-113.8 327.48,-149.8"/>
<text text-anchor="middle" x="274" y="-127.6" font-family="Times,serif" font-size="14.00">AccountModule</text>
</g>
<!-- TokenModule&#45;&gt;AccountModule -->
<g id="edge1" class="edge">
<title>TokenModule&#45;&gt;AccountModule</title>
<path fill="none" stroke="black" d="M395.76,-84.91C395.76,-104.14 395.76,-131.8 395.76,-131.8 395.76,-131.8 337.76,-131.8 337.76,-131.8"/>
<polygon fill="black" stroke="black" points="337.76,-128.3 327.76,-131.8 337.76,-135.3 337.76,-128.3"/>
</g>
<!-- AccountRepository  -->
<g id="node3" class="node">
<title>AccountRepository </title>
<polygon fill="#fb8072" stroke="black" points="407.37,-214.8 278.63,-214.8 278.63,-178.8 407.37,-178.8 407.37,-214.8"/>
<text text-anchor="middle" x="343" y="-192.6" font-family="Times,serif" font-size="14.00">AccountRepository </text>
</g>
<!-- AccountModule&#45;&gt;AccountRepository  -->
<g id="edge2" class="edge">
<title>AccountModule&#45;&gt;AccountRepository </title>
<path fill="none" stroke="black" stroke-dasharray="5,2" d="M303.15,-149.91C303.15,-149.91 303.15,-168.79 303.15,-168.79"/>
<polygon fill="black" stroke="black" points="299.65,-168.79 303.15,-178.79 306.65,-168.79 299.65,-168.79"/>
</g>
<!-- AccountService  -->
<g id="node4" class="node">
<title>AccountService </title>
<polygon fill="#fb8072" stroke="black" points="260.41,-214.8 151.59,-214.8 151.59,-178.8 260.41,-178.8 260.41,-214.8"/>
<text text-anchor="middle" x="206" y="-192.6" font-family="Times,serif" font-size="14.00">AccountService </text>
</g>
<!-- AccountModule&#45;&gt;AccountService  -->
<g id="edge3" class="edge">
<title>AccountModule&#45;&gt;AccountService </title>
<path fill="none" stroke="black" stroke-dasharray="5,2" d="M240.48,-149.91C240.48,-149.91 240.48,-168.79 240.48,-168.79"/>
<polygon fill="black" stroke="black" points="236.98,-168.79 240.48,-178.79 243.98,-168.79 236.98,-168.79"/>
</g>
<!-- AccountRepository -->
<g id="node5" class="node">
<title>AccountRepository</title>
<ellipse fill="#fdb462" stroke="black" cx="274" cy="-66.8" rx="86.27" ry="18"/>
<text text-anchor="middle" x="274" y="-62.6" font-family="Times,serif" font-size="14.00">AccountRepository</text>
</g>
<!-- AccountRepository&#45;&gt;AccountModule -->
<g id="edge4" class="edge">
<title>AccountRepository&#45;&gt;AccountModule</title>
<path fill="none" stroke="black" d="M274,-84.91C274,-84.91 274,-103.79 274,-103.79"/>
<polygon fill="black" stroke="black" points="270.5,-103.79 274,-113.79 277.5,-103.79 270.5,-103.79"/>
</g>
<!-- AccountService -->
<g id="node6" class="node">
<title>AccountService</title>
<ellipse fill="#fdb462" stroke="black" cx="97" cy="-66.8" rx="72.92" ry="18"/>
<text text-anchor="middle" x="97" y="-62.6" font-family="Times,serif" font-size="14.00">AccountService</text>
</g>
<!-- AccountService&#45;&gt;AccountModule -->
<g id="edge5" class="edge">
<title>AccountService&#45;&gt;AccountModule</title>
<path fill="none" stroke="black" d="M160.63,-75.57C160.63,-93.31 160.63,-131.8 160.63,-131.8 160.63,-131.8 210.3,-131.8 210.3,-131.8"/>
<polygon fill="black" stroke="black" points="210.3,-135.3 220.3,-131.8 210.3,-128.3 210.3,-135.3"/>
</g>
</g>
</svg>
