<?xml version="1.0" encoding="UTF-8" standalone="no"?>
<!DOCTYPE svg PUBLIC "-//W3C//DTD SVG 1.1//EN"
 "http://www.w3.org/Graphics/SVG/1.1/DTD/svg11.dtd">
<!-- Generated by graphviz version 5.0.0 (20220707.1540)
 -->
<!-- Title: dependencies Pages: 1 -->
<svg width="681pt" height="174pt"
 viewBox="0.00 0.00 681.00 173.80" xmlns="http://www.w3.org/2000/svg" xmlns:xlink="http://www.w3.org/1999/xlink">
<g id="graph0" class="graph" transform="scale(1 1) rotate(0) translate(4 169.8)">
<title>dependencies</title>
<polygon fill="white" stroke="transparent" points="-4,4 -4,-169.8 677,-169.8 677,4 -4,4"/>
<text text-anchor="middle" x="336.5" y="-8.2" font-family="sans-serif" font-size="14.00">dependencies</text>
<g id="clust1" class="cluster">
<title>cluster_StitchModule</title>
<polygon fill="none" stroke="black" stroke-dasharray="1,5" points="8,-32.8 8,-157.8 665,-157.8 665,-32.8 8,-32.8"/>
</g>
<g id="clust3" class="cluster">
<title>cluster_StitchModule_imports</title>
<polygon fill="none" stroke="black" points="16,-40.8 16,-92.8 657,-92.8 657,-40.8 16,-40.8"/>
</g>
<!-- AccountModule -->
<g id="node1" class="node">
<title>AccountModule</title>
<polygon fill="#8dd3c7" stroke="black" points="649.48,-84.8 646.48,-88.8 625.48,-88.8 622.48,-84.8 542.52,-84.8 542.52,-48.8 649.48,-48.8 649.48,-84.8"/>
<text text-anchor="middle" x="596" y="-62.6" font-family="Times,serif" font-size="14.00">AccountModule</text>
</g>
<!-- StitchModule -->
<g id="node6" class="node">
<title>StitchModule</title>
<polygon fill="#8dd3c7" stroke="black" points="381.22,-149.8 378.22,-153.8 357.22,-153.8 354.22,-149.8 288.78,-149.8 288.78,-113.8 381.22,-113.8 381.22,-149.8"/>
<text text-anchor="middle" x="335" y="-127.6" font-family="Times,serif" font-size="14.00">StitchModule</text>
</g>
<!-- AccountModule&#45;&gt;StitchModule -->
<g id="edge1" class="edge">
<title>AccountModule&#45;&gt;StitchModule</title>
<path fill="none" stroke="black" d="M596,-85.08C596,-106.12 596,-137.8 596,-137.8 596,-137.8 391.36,-137.8 391.36,-137.8"/>
<polygon fill="black" stroke="black" points="391.36,-134.3 381.36,-137.8 391.36,-141.3 391.36,-134.3"/>
</g>
<!-- DatabaseModule -->
<g id="node2" class="node">
<title>DatabaseModule</title>
<polygon fill="#8dd3c7" stroke="black" points="524.36,-84.8 521.36,-88.8 500.36,-88.8 497.36,-84.8 413.64,-84.8 413.64,-48.8 524.36,-48.8 524.36,-84.8"/>
<text text-anchor="middle" x="469" y="-62.6" font-family="Times,serif" font-size="14.00">DatabaseModule</text>
</g>
<!-- DatabaseModule&#45;&gt;StitchModule -->
<g id="edge2" class="edge">
<title>DatabaseModule&#45;&gt;StitchModule</title>
<path fill="none" stroke="black" d="M469,-84.82C469,-102.17 469,-125.8 469,-125.8 469,-125.8 391.12,-125.8 391.12,-125.8"/>
<polygon fill="black" stroke="black" points="391.12,-122.3 381.12,-125.8 391.12,-129.3 391.12,-122.3"/>
</g>
<!-- EncryptionModule -->
<g id="node3" class="node">
<title>EncryptionModule</title>
<polygon fill="#8dd3c7" stroke="black" points="395.76,-84.8 392.76,-88.8 371.76,-88.8 368.76,-84.8 274.24,-84.8 274.24,-48.8 395.76,-48.8 395.76,-84.8"/>
<text text-anchor="middle" x="335" y="-62.6" font-family="Times,serif" font-size="14.00">EncryptionModule</text>
</g>
<!-- EncryptionModule&#45;&gt;StitchModule -->
<g id="edge3" class="edge">
<title>EncryptionModule&#45;&gt;StitchModule</title>
<path fill="none" stroke="black" d="M335,-84.91C335,-84.91 335,-103.79 335,-103.79"/>
<polygon fill="black" stroke="black" points="331.5,-103.79 335,-113.79 338.5,-103.79 331.5,-103.79"/>
</g>
<!-- HeimdallModule -->
<g id="node4" class="node">
<title>HeimdallModule</title>
<polygon fill="#8dd3c7" stroke="black" points="255.65,-84.8 252.65,-88.8 231.65,-88.8 228.65,-84.8 144.35,-84.8 144.35,-48.8 255.65,-48.8 255.65,-84.8"/>
<text text-anchor="middle" x="200" y="-62.6" font-family="Times,serif" font-size="14.00">HeimdallModule</text>
</g>
<!-- HeimdallModule&#45;&gt;StitchModule -->
<g id="edge4" class="edge">
<title>HeimdallModule&#45;&gt;StitchModule</title>
<path fill="none" stroke="black" d="M200,-84.82C200,-102.17 200,-125.8 200,-125.8 200,-125.8 278.54,-125.8 278.54,-125.8"/>
<polygon fill="black" stroke="black" points="278.54,-129.3 288.54,-125.8 278.54,-122.3 278.54,-129.3"/>
</g>
<!-- UptimeModule -->
<g id="node5" class="node">
<title>UptimeModule</title>
<polygon fill="#8dd3c7" stroke="black" points="125.55,-84.8 122.55,-88.8 101.55,-88.8 98.55,-84.8 24.45,-84.8 24.45,-48.8 125.55,-48.8 125.55,-84.8"/>
<text text-anchor="middle" x="75" y="-62.6" font-family="Times,serif" font-size="14.00">UptimeModule</text>
</g>
<!-- UptimeModule&#45;&gt;StitchModule -->
<g id="edge5" class="edge">
<title>UptimeModule&#45;&gt;StitchModule</title>
<path fill="none" stroke="black" d="M75,-85.08C75,-106.12 75,-137.8 75,-137.8 75,-137.8 278.82,-137.8 278.82,-137.8"/>
<polygon fill="black" stroke="black" points="278.82,-141.3 288.82,-137.8 278.82,-134.3 278.82,-141.3"/>
</g>
</g>
</svg>
